<svg xmlns="http://www.w3.org/2000/svg" viewBox="0 0 512 512">
  <rect width="512" height="512" rx="96" fill="#020617"/>
  <rect x="92" y="60" width="40" height="392" rx="10" fill="#020617" stroke="#22d3ee" stroke-width="6"/>
  <line x1="112" y1="40" x2="112" y2="60" stroke="#22d3ee" stroke-width="6"/>
  <line x1="112" y1="452" x2="112" y2="472" stroke="#22d3ee" stroke-width="6"/>
  <rect x="186" y="140" width="60" height="240" rx="10" fill="#ef4444" stroke="#fca5a5" stroke-width="4"/>
  <line x1="216" y1="100" x2="216" y2="140" stroke="#ef4444" stroke-width="6"/>
  <line x1="216" y1="380" x2="216" y2="420" stroke="#ef4444" stroke-width="6"/>
  <rect x="282" y="200" width="60" height="160" rx="10" fill="#22c55e" stroke="#86efac" stroke-width="4"/>
  <line x1="312" y1="160" x2="312" y2="200" stroke="#22c55e" stroke-width="6"/>
  <line x1="312" y1="360" x2="312" y2="400" stroke="#22c55e" stroke-width="6"/>
  <rect x="378" y="100" width="50" height="320" rx="10" fill="#ef4444" stroke="#fca5a5" stroke-width="4"/>
  <line x1="403" y1="60" x2="403" y2="100" stroke="#ef4444" stroke-width="6"/>
  <line x1="403" y1="420" x2="403" y2="450" stroke="#ef4444" stroke-width="6"/>
  <path d="M 60 380 Q 150 320, 240 280 T 460 130" stroke="#fde047" stroke-width="10" fill="none" stroke-linecap="round" opacity="0.8"/>
</svg>
